Genre:Biography | Drama | History
Language:English
IMDb:http://www.imdb.com/title/tt1285016/
Source:.BluRay.x264-METiS



Format : Matroska
File size : 2.31 GiB
Duration : 2h 0mn
Overall bit rate : 2 745 Kbps


Video
Format settings, CABAC : Yes
Format settings, ReFrames : 4 frames
Codec ID : V_MPEG4/ISO/AVC
Duration : 2h 0mn
Bit rate : 2 345 Kbps
Width : 1 280 pixels
Height : 528 pixels
Display aspect ratio : 2.40:1
Frame rate mode : Variable
Frame rate : 23.976 fps
Color space : YUV
Chroma subsampling : 4:2:0
Bit depth : 8 bits
Scan type : Progressive
Bits/(Pixel*Frame) : 0.145
Stream size : 1.94 GiB (84%)
Writing library : x264


Audio
ID : 2
Format : AC-3
Format/Info : Audio Coding 3
Mode extension : CM (complete main)
Codec ID : A_AC3
Duration : 2h 0mn
Bit rate mode : Constant
Bit rate : 384 Kbps
Channel(s) : 6 channels
Channel positions : Front: L C R, Side: L R, LFE
Sampling rate : 48.0 KHz
Bit depth : 16 bits
Video delay : -1mn 5s
Stream size : 331 MiB (14%)
Language : English


Plot:
A story about the founders of the social-networking website, Facebook.







================================== 
http://thepiratebay.org/user/hiest
==================================







Screen Shots:
 
http://rapidhdd.com/images/355950vlcsnap-2010-12-15-15h08m46s227.png
 
http://rapidhdd.com/images/878412vlcsnap-2010-12-15-15h09m51s105.png
 
http://www.rapidhdd.com/images/364187vlcsnap-2010-12-15-15h11m09s116.png
 
http://www.rapidhdd.com/images/575749vlcsnap-2010-12-15-15h09m57s164.png

